<?xml version="1.0" encoding="utf-8"?>
<!-- Generator: Adobe Illustrator 14.0.0, SVG Export Plug-In . SVG Version: 6.00 Build 43363)  -->
<!DOCTYPE svg PUBLIC "-//W3C//DTD SVG 1.1//EN" "http://www.w3.org/Graphics/SVG/1.1/DTD/svg11.dtd">
<svg version="1.1" id="Layer_1" xmlns="http://www.w3.org/2000/svg" xmlns:xlink="http://www.w3.org/1999/xlink" x="0px" y="0px"
	 width="100px" height="100px" viewBox="0 0 100 100" enable-background="new 0 0 100 100" xml:space="preserve">
<g>
	<g>
		<path fill-rule="evenodd" clip-rule="evenodd" fill="#FFFFFF" d="M52.734,66.102c1.272,0.455,2.481,0.996,3.831,1.531
			c1.2,0.475,2.661,1.49,3.937,1.529c0.828,0.027,2.055-0.594,3.174-0.873c7.628-1.912,16.262-3.35,23.842-4.812
			c1.595-3.436,2.799-7.27,3.281-11.812c-0.071,0-0.145,0-0.218,0C77.71,56.221,64.954,60.891,52.734,66.102z M14.563,67.633
			c0.601,1.027,1.79,3.16,2.514,3.389c1.006,0.322,2.487-0.037,3.501,0c9.614,0.361,17.248,2.189,24.718,5.031
			c7.357,2.801,14.416,5.49,21.875,7.984c3.072-1.469,6.367-3.416,8.862-5.467c0.232-0.191,0.919-0.602,0.655-0.986
			c-12.91-2.309-23.008-6.943-33.145-11.701C33.269,61.055,23.633,55.727,9.748,54.725C10.457,59.121,12.389,63.916,14.563,67.633z
			 M66.736,71.461c4.219,1.25,8.767,2.172,13.345,3.062c2.129-1.92,3.774-4.32,5.251-6.891c-0.073,0-0.147,0-0.219,0
			C78.967,68.889,72.572,69.895,66.736,71.461z M37.421,85.789c6.76,2.268,16.759,2.885,24.175,0.217
			c-13.343-4.158-24.164-11.42-41.563-11.154C24.446,79.512,30.165,83.352,37.421,85.789z"/>
		<path fill-rule="evenodd" clip-rule="evenodd" fill="#000000" d="M90.581,51.664c0.073,0,0.146,0,0.218,0
			c-0.482,4.543-1.687,8.377-3.281,11.812c-7.58,1.463-16.214,2.9-23.842,4.812c-1.119,0.279-2.346,0.9-3.174,0.873
			c-1.275-0.039-2.736-1.055-3.937-1.529c-1.35-0.535-2.559-1.076-3.831-1.531C64.954,60.891,77.71,56.221,90.581,51.664z"/>
		<path fill-rule="evenodd" clip-rule="evenodd" fill="#000000" d="M9.748,54.725c13.885,1.002,23.521,6.33,33.797,11.158
			c10.137,4.758,20.234,9.393,33.145,11.701c0.264,0.385-0.423,0.795-0.655,0.986c-2.495,2.051-5.79,3.998-8.862,5.467
			c-7.459-2.494-14.518-5.184-21.875-7.984c-7.471-2.842-15.104-4.67-24.718-5.031c-1.015-0.037-2.495,0.322-3.501,0
			c-0.724-0.229-1.914-2.361-2.514-3.389C12.389,63.916,10.457,59.121,9.748,54.725z"/>
		<path fill-rule="evenodd" clip-rule="evenodd" fill="#000000" d="M85.113,67.633c0.071,0,0.146,0,0.219,0
			c-1.477,2.57-3.122,4.971-5.251,6.891c-4.578-0.891-9.126-1.812-13.345-3.062C72.572,69.895,78.967,68.889,85.113,67.633z"/>
		<path fill-rule="evenodd" clip-rule="evenodd" fill="#000000" d="M20.033,74.852c17.399-0.266,28.22,6.996,41.563,11.154
			c-7.416,2.668-17.415,2.051-24.175-0.217C30.165,83.352,24.446,79.512,20.033,74.852z"/>
	</g>

		<radialGradient id="SVGID_1_" cx="189.0527" cy="-387.8472" r="15.306" gradientTransform="matrix(0.9844 -0.176 0.176 0.9844 -72.3461 462.7348)" gradientUnits="userSpaceOnUse">
		<stop  offset="0" style="stop-color:#3D823E"/>
		<stop  offset="1" style="stop-color:#3A602E"/>
	</radialGradient>
	<path fill-rule="evenodd" clip-rule="evenodd" fill="#000000" d="M26.664,39.867c3.713-1.461,6.937-2.773,9.842-3.712
		c10.87-3.525,18.071,0.585,22.816,7.748c2.004,3.032,3.571,6.597,4.796,10.367c-9.663,4.896-16.214,9.518-26.971,2.971
		C31.723,53.939,30.531,49.168,26.664,39.867L26.664,39.867L26.664,39.867z"/>
	<path fill-rule="evenodd" clip-rule="evenodd" fill="#FFFFFF" d="M37.688,43.034c12.857-1.91,16.599-0.165,25.061,9.492
		C53.242,46.493,48.933,44.83,37.688,43.034L37.688,43.034L37.688,43.034z"/>

		<radialGradient id="SVGID_2_" cx="220.7871" cy="-399.1714" r="19.4208" gradientTransform="matrix(0.9844 -0.176 0.176 0.9844 -72.3461 462.7348)" gradientUnits="userSpaceOnUse">
		<stop  offset="0" style="stop-color:#3D823E"/>
		<stop  offset="1" style="stop-color:#3A602E"/>
	</radialGradient>
	<path fill-rule="evenodd" clip-rule="evenodd" fill="#000000" d="M64.406,54.828c-4.512-10.661-6.714-18.613-5.771-25.114
		c1.326-9.198,8.944-15.492,25.197-22.455c2.408,4.199,4.182,7.995,5.385,11.435c2.641,7.57,1.918,13.215,0.362,18.219
		c-1.54,4.936-4.972,8.793-10.568,12.027C75.185,51.148,70.346,53.066,64.406,54.828L64.406,54.828L64.406,54.828z"/>
	<path fill-rule="evenodd" clip-rule="evenodd" fill="#FFFFFF" d="M64.12,52.633c2.057-16.79,3.967-21.035,14.174-33.985
		C64.441,28.491,61.245,34.687,64.12,52.633L64.12,52.633L64.12,52.633z"/>
</g>
</svg>
